<?xml version="1.0" encoding="UTF-8" standalone="no"?>
<!-- Created with Inkscape (http://www.inkscape.org/) -->

<svg
   width="220"
   height="250"
   viewBox="0 0 58.208336 66.145837"
   version="1.1"
   id="svg1"
   xml:space="preserve"
   inkscape:version="1.4 (e7c3feb100, 2024-10-09)"
   sodipodi:docname="logo-vectorial.svg"
   inkscape:export-filename="logo.png"
   inkscape:export-xdpi="96"
   inkscape:export-ydpi="96"
   xmlns:inkscape="http://www.inkscape.org/namespaces/inkscape"
   xmlns:sodipodi="http://sodipodi.sourceforge.net/DTD/sodipodi-0.dtd"
   xmlns="http://www.w3.org/2000/svg"
   xmlns:svg="http://www.w3.org/2000/svg"><sodipodi:namedview
     id="namedview1"
     pagecolor="#ffffff"
     bordercolor="#666666"
     borderopacity="1.0"
     inkscape:showpageshadow="2"
     inkscape:pageopacity="0.0"
     inkscape:pagecheckerboard="0"
     inkscape:deskcolor="#d1d1d1"
     inkscape:document-units="mm"
     showgrid="true"
     inkscape:zoom="2.8284271"
     inkscape:cx="96.873629"
     inkscape:cy="160.69002"
     inkscape:window-width="1866"
     inkscape:window-height="1017"
     inkscape:window-x="0"
     inkscape:window-y="0"
     inkscape:window-maximized="1"
     inkscape:current-layer="svg1"><inkscape:grid
       id="grid1"
       units="px"
       originx="0"
       originy="0"
       spacingx="1.0583333"
       spacingy="1.0583333"
       empcolor="#0099e5"
       empopacity="0.30196078"
       color="#0099e5"
       opacity="0.14901961"
       empspacing="5"
       enabled="true"
       visible="true" /></sodipodi:namedview><defs
     id="defs1"><clipPath
       clipPathUnits="userSpaceOnUse"
       id="clipPath95"><ellipse
         style="opacity:1;fill:#ffffff;fill-opacity:1;stroke:none;stroke-width:0.353483;stroke-linecap:round;stroke-linejoin:round;stroke-dasharray:none;stroke-opacity:1;paint-order:fill markers stroke"
         id="ellipse96"
         cx="40.481247"
         cy="107.68542"
         rx="1.0583335"
         ry="1.0583351" /></clipPath></defs><g
     inkscape:label="Layer 1"
     inkscape:groupmode="layer"
     id="layer1"
     style="display:inline"><path
       style="fill:#ffffff;fill-opacity:1;stroke:#000000;stroke-width:1.05834px;stroke-linecap:round;stroke-linejoin:round;stroke-opacity:1"
       d="M 5.2916665,5.2916662 V 63.499994 H 53.974998 V 5.2916662 Z"
       id="path19" /><path
       style="fill:#e0e0e0;fill-opacity:1;stroke:#000000;stroke-width:1.05968;stroke-linecap:round;stroke-linejoin:round;stroke-dasharray:none;stroke-opacity:1"
       d="M 11.630582,26.456694 V 11.637034 H 47.58478 v 14.81966 z"
       id="path20" /><path
       style="fill:none;stroke:#000000;stroke-width:1.05801px;stroke-linecap:round;stroke-linejoin:round;stroke-opacity:1"
       d="m 16.917969,23.281034 v -8.46837 l 4.229905,4.23418 4.229904,-4.23418 v 8.46837"
       id="path5" /><path
       style="fill:none;stroke:#000000;stroke-width:1.05801px;stroke-linecap:round;stroke-linejoin:round;stroke-opacity:1"
       d="m 31.722634,23.281074 v -4.23423"
       id="path9"
       sodipodi:nodetypes="cc" /><path
       style="fill:none;stroke:#000000;stroke-width:1.05801px;stroke-linecap:round;stroke-linejoin:round;stroke-opacity:1"
       d="m 34.895062,14.812674 v 8.46836"
       id="path11" /><path
       style="fill:none;stroke:#000000;stroke-width:1.05801px;stroke-linecap:round;stroke-linejoin:round;stroke-opacity:1"
       d="m 39.124967,19.046844 -4.229905,2.11714"
       id="path12" /><path
       style="fill:none;stroke:#000000;stroke-width:1.05801px;stroke-linecap:round;stroke-linejoin:round;stroke-opacity:1"
       d="m 39.124967,23.281034 -3.17243,-2.11705"
       id="path13" /><path
       style="fill:none;stroke:#000000;stroke-width:1.05801px;stroke-linecap:round;stroke-linejoin:round;stroke-opacity:1"
       d="m 42.297396,23.281034 v -4.23419 h -1.057475"
       id="path14" /><path
       style="fill:none;stroke:#000000;stroke-width:1.05801px;stroke-linecap:round;stroke-linejoin:round;stroke-opacity:1"
       d="m 42.297396,16.929774 v 1e-5"
       id="path15"
       sodipodi:nodetypes="cc" /><path
       style="fill:none;stroke:#000000;stroke-width:1.05801px;stroke-linecap:butt;stroke-linejoin:miter;stroke-opacity:1"
       d="M 29.607683,41.276414 V 26.456694"
       id="path16" /><path
       style="fill:#000000;fill-opacity:1;stroke:#000000;stroke-width:1.05801px;stroke-linecap:round;stroke-linejoin:round;stroke-opacity:1"
       d="m 26.435257,38.100754 h 6.344856 l -3.17243,3.17566 z"
       id="path17" /><path
       style="fill:#e0e0e0;stroke-width:3.9988;stroke-linecap:round;stroke-linejoin:round"
       d="m 33.846944,53.441314 a 0.52873756,0.52927408 0 0 0 -0.530818,0.53138 0.52873756,0.52927408 0 0 0 0.530818,0.53139 0.52873756,0.52927408 0 0 0 0.523016,-0.53139 0.52873756,0.52927408 0 0 0 -0.523016,-0.53138 z"
       id="path15-6-22" /><path
       style="fill:#e0e0e0;stroke-width:3.9988;stroke-linecap:round;stroke-linejoin:round"
       d="m 32.793102,54.504084 a 0.52873756,0.52927408 0 0 0 -0.530818,0.53134 0.52873756,0.52927408 0 0 0 0.530818,0.53138 0.52873756,0.52927408 0 0 0 0.523015,-0.53138 0.52873756,0.52927408 0 0 0 -0.523015,-0.53134 z"
       id="path15-6-3" /><path
       style="fill:#e0e0e0;stroke-width:3.9988;stroke-linecap:round;stroke-linejoin:round"
       d="m 31.73926,55.566804 a 0.52873756,0.52927408 0 0 0 -0.530819,0.53134 0.52873756,0.52927408 0 0 0 0.530819,0.53138 0.52873756,0.52927408 0 0 0 0.523016,-0.53138 0.52873756,0.52927408 0 0 0 -0.523016,-0.53134 z"
       id="path15-6-9" /><path
       style="fill:#e0e0e0;stroke-width:3.9988;stroke-linecap:round;stroke-linejoin:round"
       d="m 30.685418,54.504084 a 0.52873756,0.52927408 0 0 0 -0.530819,0.53134 0.52873756,0.52927408 0 0 0 0.530819,0.53138 0.52873756,0.52927408 0 0 0 0.523015,-0.53138 0.52873756,0.52927408 0 0 0 -0.523015,-0.53134 z"
       id="path15-6-4" /><path
       style="fill:#e0e0e0;stroke-width:3.9988;stroke-linecap:round;stroke-linejoin:round"
       d="m 29.609769,55.562634 a 0.52873756,0.52927408 0 0 0 -0.530818,0.53135 0.52873756,0.52927408 0 0 0 0.530818,0.53138 0.52873756,0.52927408 0 0 0 0.523016,-0.53138 0.52873756,0.52927408 0 0 0 -0.523016,-0.53135 z"
       id="path15-6-5" /><path
       style="fill:#e0e0e0;stroke-width:3.9988;stroke-linecap:round;stroke-linejoin:round"
       d="m 28.55229,54.504124 a 0.52873756,0.52927408 0 0 0 -0.530818,0.53134 0.52873756,0.52927408 0 0 0 0.530818,0.53138 0.52873756,0.52927408 0 0 0 0.523016,-0.53138 0.52873756,0.52927408 0 0 0 -0.523016,-0.53134 z"
       id="path15-6-1" /><path
       style="fill:#e0e0e0;stroke-width:3.9988;stroke-linecap:round;stroke-linejoin:round"
       d="m 27.494815,55.562634 a 0.52873756,0.52927408 0 0 0 -0.530819,0.53135 0.52873756,0.52927408 0 0 0 0.530819,0.53138 0.52873756,0.52927408 0 0 0 0.523016,-0.53138 0.52873756,0.52927408 0 0 0 -0.523016,-0.53135 z"
       id="path15-6-20" /><path
       style="fill:#e0e0e0;stroke-width:3.9988;stroke-linecap:round;stroke-linejoin:round"
       d="m 26.440973,54.499914 a 0.52873756,0.52927408 0 0 0 -0.530818,0.53134 0.52873756,0.52927408 0 0 0 0.530818,0.53138 0.52873756,0.52927408 0 0 0 0.523015,-0.53138 0.52873756,0.52927408 0 0 0 -0.523015,-0.53134 z"
       id="path15-6-54" /><path
       style="fill:#e0e0e0;stroke-width:3.9988;stroke-linecap:round;stroke-linejoin:round"
       d="m 27.498448,53.445514 a 0.52873756,0.52927408 0 0 0 -0.530819,0.53138 0.52873756,0.52927408 0 0 0 0.530819,0.53138 0.52873756,0.52927408 0 0 0 0.523016,-0.53138 0.52873756,0.52927408 0 0 0 -0.523016,-0.53138 z"
       id="path15-6-6" /><path
       style="fill:#e0e0e0;stroke-width:3.9988;stroke-linecap:round;stroke-linejoin:round"
       d="m 31.73926,53.441314 a 0.52873756,0.52927408 0 0 0 -0.530819,0.53138 0.52873756,0.52927408 0 0 0 0.530819,0.53139 0.52873756,0.52927408 0 0 0 0.523016,-0.53139 0.52873756,0.52927408 0 0 0 -0.523016,-0.53138 z"
       id="path15-6-78" /><path
       style="fill:#e0e0e0;stroke-width:3.9988;stroke-linecap:round;stroke-linejoin:round"
       d="m 29.624306,53.445514 a 0.52873756,0.52927408 0 0 0 -0.530819,0.53138 0.52873756,0.52927408 0 0 0 0.530819,0.53138 0.52873756,0.52927408 0 0 0 0.523016,-0.53138 0.52873756,0.52927408 0 0 0 -0.523016,-0.53138 z"
       id="path15-6-43" /><path
       style="fill:#e0e0e0;stroke-width:3.9988;stroke-linecap:round;stroke-linejoin:round"
       d="m 25.387131,53.437154 a 0.52873756,0.52927408 0 0 0 -0.530819,0.53134 0.52873756,0.52927408 0 0 0 0.530819,0.53142 0.52873756,0.52927408 0 0 0 0.523016,-0.53142 0.52873756,0.52927408 0 0 0 -0.523016,-0.53134 z"
       id="path15-6-206" /><path
       style="fill:#e0e0e0;stroke-width:3.9988;stroke-linecap:round;stroke-linejoin:round"
       d="m 34.897153,50.278244 a 0.52873756,0.52927408 0 0 0 -0.530818,0.53134 0.52873756,0.52927408 0 0 0 0.530818,0.53138 0.52873756,0.52927408 0 0 0 0.523016,-0.53138 0.52873756,0.52927408 0 0 0 -0.523016,-0.53134 z"
       id="path22" /><path
       style="fill:#e0e0e0;stroke-width:3.9988;stroke-linecap:round;stroke-linejoin:round"
       d="m 33.84331,51.340964 a 0.52873756,0.52927408 0 0 0 -0.530817,0.53134 0.52873756,0.52927408 0 0 0 0.530817,0.53143 0.52873756,0.52927408 0 0 0 0.523017,-0.53143 0.52873756,0.52927408 0 0 0 -0.523017,-0.53134 z"
       id="path23" /><path
       style="fill:#e0e0e0;stroke-width:3.9988;stroke-linecap:round;stroke-linejoin:round"
       d="m 32.789468,52.403734 a 0.52873756,0.52927408 0 0 0 -0.530818,0.53134 0.52873756,0.52927408 0 0 0 0.530818,0.53138 0.52873756,0.52927408 0 0 0 0.523017,-0.53138 0.52873756,0.52927408 0 0 0 -0.523017,-0.53134 z"
       id="path24" /><path
       style="fill:#e0e0e0;stroke-width:3.9988;stroke-linecap:round;stroke-linejoin:round"
       d="m 34.897153,52.395334 a 0.52873756,0.52927408 0 0 0 -0.530818,0.53139 0.52873756,0.52927408 0 0 0 0.530818,0.53138 0.52873756,0.52927408 0 0 0 0.523016,-0.53138 0.52873756,0.52927408 0 0 0 -0.523016,-0.53139 z"
       id="path31" /><path
       style="fill:#e0e0e0;stroke-width:3.9988;stroke-linecap:round;stroke-linejoin:round"
       d="m 35.954627,51.336814 a 0.52873756,0.52927408 0 0 0 -0.530817,0.53134 0.52873756,0.52927408 0 0 0 0.530817,0.53142 0.52873756,0.52927408 0 0 0 0.523017,-0.53142 0.52873756,0.52927408 0 0 0 -0.523017,-0.53134 z"
       id="path32" /><path
       style="fill:#e0e0e0;stroke-width:3.9988;stroke-linecap:round;stroke-linejoin:round"
       d="m 26.433702,52.399574 a 0.52873756,0.52927408 0 0 0 -0.530817,0.53134 0.52873756,0.52927408 0 0 0 0.530817,0.53138 0.52873756,0.52927408 0 0 0 0.523017,-0.53138 0.52873756,0.52927408 0 0 0 -0.523017,-0.53134 z"
       id="path36" /><path
       style="fill:#e0e0e0;stroke-width:3.9988;stroke-linecap:round;stroke-linejoin:round"
       d="m 25.376227,51.341004 a 0.52873756,0.52927408 0 0 0 -0.530817,0.53134 0.52873756,0.52927408 0 0 0 0.530817,0.53143 0.52873756,0.52927408 0 0 0 0.523017,-0.53143 0.52873756,0.52927408 0 0 0 -0.523017,-0.53134 z"
       id="path37" /><path
       style="fill:#e0e0e0;stroke-width:3.9988;stroke-linecap:round;stroke-linejoin:round"
       d="m 24.318752,50.282444 a 0.52873756,0.52927408 0 0 0 -0.530818,0.53134 0.52873756,0.52927408 0 0 0 0.530818,0.53138 0.52873756,0.52927408 0 0 0 0.523017,-0.53138 0.52873756,0.52927408 0 0 0 -0.523017,-0.53134 z"
       id="path38" /><path
       style="fill:#e0e0e0;stroke-width:3.9988;stroke-linecap:round;stroke-linejoin:round"
       d="m 24.322385,52.403774 a 0.52873756,0.52927408 0 0 0 -0.530818,0.53134 0.52873756,0.52927408 0 0 0 0.530818,0.53138 0.52873756,0.52927408 0 0 0 0.523017,-0.53138 0.52873756,0.52927408 0 0 0 -0.523017,-0.53134 z"
       id="path39" /><path
       style="fill:#e0e0e0;stroke-width:3.9988;stroke-linecap:round;stroke-linejoin:round"
       d="m 33.84331,47.094234 a 0.52873756,0.52927408 0 0 0 -0.530817,0.53134 0.52873756,0.52927408 0 0 0 0.530817,0.53138 0.52873756,0.52927408 0 0 0 0.523017,-0.53138 0.52873756,0.52927408 0 0 0 -0.523017,-0.53134 z"
       id="path42" /><path
       style="fill:#e0e0e0;stroke-width:3.9988;stroke-linecap:round;stroke-linejoin:round"
       d="m 33.84331,49.211324 a 0.52873756,0.52927408 0 0 0 -0.530817,0.53138 0.52873756,0.52927408 0 0 0 0.530817,0.53139 0.52873756,0.52927408 0 0 0 0.523017,-0.53139 0.52873756,0.52927408 0 0 0 -0.523017,-0.53138 z"
       id="path51" /><path
       style="fill:#e0e0e0;stroke-width:3.9988;stroke-linecap:round;stroke-linejoin:round"
       d="m 34.900785,48.152804 a 0.52873756,0.52927408 0 0 0 -0.530817,0.53134 0.52873756,0.52927408 0 0 0 0.530817,0.53142 0.52873756,0.52927408 0 0 0 0.523017,-0.53142 0.52873756,0.52927408 0 0 0 -0.523017,-0.53134 z"
       id="path52" /><path
       style="fill:#e0e0e0;stroke-width:3.9988;stroke-linecap:round;stroke-linejoin:round"
       d="m 25.383498,47.090084 a 0.52873756,0.52927408 0 0 0 -0.530818,0.53134 0.52873756,0.52927408 0 0 0 0.530818,0.53138 0.52873756,0.52927408 0 0 0 0.523015,-0.53138 0.52873756,0.52927408 0 0 0 -0.523015,-0.53134 z"
       id="path55" /><path
       style="fill:#e0e0e0;stroke-width:3.9988;stroke-linecap:round;stroke-linejoin:round"
       d="m 25.379861,49.215564 a 0.52873756,0.52927408 0 0 0 -0.530819,0.53134 0.52873756,0.52927408 0 0 0 0.530819,0.53138 0.52873756,0.52927408 0 0 0 0.523016,-0.53138 0.52873756,0.52927408 0 0 0 -0.523016,-0.53134 z"
       id="path56" /><path
       style="fill:#e0e0e0;stroke-width:3.9988;stroke-linecap:round;stroke-linejoin:round"
       d="m 24.322385,48.156994 a 0.52873756,0.52927408 0 0 0 -0.530818,0.53134 0.52873756,0.52927408 0 0 0 0.530818,0.53143 0.52873756,0.52927408 0 0 0 0.523017,-0.53143 0.52873756,0.52927408 0 0 0 -0.523017,-0.53134 z"
       id="path57" /><path
       style="fill:#e0e0e0;stroke-width:3.9988;stroke-linecap:round;stroke-linejoin:round"
       d="m 35.954627,47.090084 a 0.52873756,0.52927408 0 0 0 -0.530817,0.53134 0.52873756,0.52927408 0 0 0 0.530817,0.53138 0.52873756,0.52927408 0 0 0 0.523017,-0.53138 0.52873756,0.52927408 0 0 0 -0.523017,-0.53134 z"
       id="path60" /><path
       style="fill:#e0e0e0;stroke-width:3.9988;stroke-linecap:round;stroke-linejoin:round"
       d="m 35.958262,49.211324 a 0.52873756,0.52927408 0 0 0 -0.530819,0.53138 0.52873756,0.52927408 0 0 0 0.530819,0.53139 0.52873756,0.52927408 0 0 0 0.523015,-0.53139 0.52873756,0.52927408 0 0 0 -0.523015,-0.53138 z"
       id="path61" /><path
       style="fill:#e0e0e0;stroke-width:3.9988;stroke-linecap:round;stroke-linejoin:round"
       d="m 33.84331,44.989684 a 0.52873756,0.52927408 0 0 0 -0.530817,0.53134 0.52873756,0.52927408 0 0 0 0.530817,0.53139 0.52873756,0.52927408 0 0 0 0.523017,-0.53139 0.52873756,0.52927408 0 0 0 -0.523017,-0.53134 z"
       id="path63" /><path
       style="fill:#e0e0e0;stroke-width:3.9988;stroke-linecap:round;stroke-linejoin:round"
       d="m 32.789468,46.052414 a 0.52873756,0.52927408 0 0 0 -0.530818,0.53134 0.52873756,0.52927408 0 0 0 0.530818,0.53138 0.52873756,0.52927408 0 0 0 0.523017,-0.53138 0.52873756,0.52927408 0 0 0 -0.523017,-0.53134 z"
       id="path64" /><path
       style="fill:#e0e0e0;stroke-width:3.9988;stroke-linecap:round;stroke-linejoin:round"
       d="m 31.735627,44.989684 a 0.52873756,0.52927408 0 0 0 -0.530818,0.53134 0.52873756,0.52927408 0 0 0 0.530818,0.53139 0.52873756,0.52927408 0 0 0 0.523015,-0.53139 0.52873756,0.52927408 0 0 0 -0.523015,-0.53134 z"
       id="path65" /><path
       style="fill:#e0e0e0;stroke-width:3.9988;stroke-linecap:round;stroke-linejoin:round"
       d="m 29.602499,44.989724 a 0.52873756,0.52927408 0 0 0 -0.530818,0.53135 0.52873756,0.52927408 0 0 0 0.530818,0.53138 0.52873756,0.52927408 0 0 0 0.523016,-0.53138 0.52873756,0.52927408 0 0 0 -0.523016,-0.53135 z"
       id="path67" /><path
       style="fill:#e0e0e0;stroke-width:3.9988;stroke-linecap:round;stroke-linejoin:round"
       d="m 27.491182,44.985534 a 0.52873756,0.52927408 0 0 0 -0.530818,0.53134 0.52873756,0.52927408 0 0 0 0.530818,0.53138 0.52873756,0.52927408 0 0 0 0.523015,-0.53138 0.52873756,0.52927408 0 0 0 -0.523015,-0.53134 z"
       id="path69" /><path
       style="fill:#e0e0e0;stroke-width:3.9988;stroke-linecap:round;stroke-linejoin:round"
       d="m 28.548657,43.931164 a 0.52873756,0.52927408 0 0 0 -0.530818,0.53134 0.52873756,0.52927408 0 0 0 0.530818,0.53138 0.52873756,0.52927408 0 0 0 0.523016,-0.53138 0.52873756,0.52927408 0 0 0 -0.523016,-0.53134 z"
       id="path70" /><path
       style="fill:#e0e0e0;stroke-width:3.9988;stroke-linecap:round;stroke-linejoin:round"
       d="m 34.897153,46.044064 a 0.52873756,0.52927408 0 0 0 -0.530818,0.53134 0.52873756,0.52927408 0 0 0 0.530818,0.53138 0.52873756,0.52927408 0 0 0 0.523016,-0.53138 0.52873756,0.52927408 0 0 0 -0.523016,-0.53134 z"
       id="path71" /><path
       style="fill:#e0e0e0;stroke-width:3.9988;stroke-linecap:round;stroke-linejoin:round"
       d="m 32.789468,43.926924 a 0.52873756,0.52927408 0 0 0 -0.530818,0.53138 0.52873756,0.52927408 0 0 0 0.530818,0.53138 0.52873756,0.52927408 0 0 0 0.523017,-0.53138 0.52873756,0.52927408 0 0 0 -0.523017,-0.53138 z"
       id="path73" /><path
       style="fill:#e0e0e0;stroke-width:3.9988;stroke-linecap:round;stroke-linejoin:round"
       d="m 30.681784,43.926924 a 0.52873756,0.52927408 0 0 0 -0.530818,0.53138 0.52873756,0.52927408 0 0 0 0.530818,0.53138 0.52873756,0.52927408 0 0 0 0.523017,-0.53138 0.52873756,0.52927408 0 0 0 -0.523017,-0.53138 z"
       id="path74" /><path
       style="fill:#e0e0e0;stroke-width:3.9988;stroke-linecap:round;stroke-linejoin:round"
       d="m 26.43734,43.922774 a 0.52873756,0.52927408 0 0 0 -0.530819,0.53134 0.52873756,0.52927408 0 0 0 0.530819,0.53142 0.52873756,0.52927408 0 0 0 0.523016,-0.53142 0.52873756,0.52927408 0 0 0 -0.523016,-0.53134 z"
       id="path75" /><path
       style="fill:#e0e0e0;stroke-width:3.9988;stroke-linecap:round;stroke-linejoin:round"
       d="m 26.433702,46.048254 a 0.52873756,0.52927408 0 0 0 -0.530817,0.53134 0.52873756,0.52927408 0 0 0 0.530817,0.53138 0.52873756,0.52927408 0 0 0 0.523017,-0.53138 0.52873756,0.52927408 0 0 0 -0.523017,-0.53134 z"
       id="path76" /><path
       style="fill:#e0e0e0;stroke-width:3.9988;stroke-linecap:round;stroke-linejoin:round"
       d="m 25.376227,44.989724 a 0.52873756,0.52927408 0 0 0 -0.530817,0.53135 0.52873756,0.52927408 0 0 0 0.530817,0.53138 0.52873756,0.52927408 0 0 0 0.523017,-0.53138 0.52873756,0.52927408 0 0 0 -0.523017,-0.53135 z"
       id="path77" /><path
       style="fill:#e0e0e0;stroke-width:3.9988;stroke-linecap:round;stroke-linejoin:round"
       d="m 24.322385,46.052454 a 0.52873756,0.52927408 0 0 0 -0.530818,0.53134 0.52873756,0.52927408 0 0 0 0.530818,0.53138 0.52873756,0.52927408 0 0 0 0.523017,-0.53138 0.52873756,0.52927408 0 0 0 -0.523017,-0.53134 z"
       id="path79" /><path
       style="fill:#e0e0e0;stroke-width:3.9988;stroke-linecap:round;stroke-linejoin:round"
       d="m 27.494815,42.872594 a 0.52873756,0.52927408 0 0 0 -0.530819,0.53134 0.52873756,0.52927408 0 0 0 0.530819,0.53142 0.52873756,0.52927408 0 0 0 0.523016,-0.53142 0.52873756,0.52927408 0 0 0 -0.523016,-0.53134 z"
       id="path83" /><path
       style="fill:#e0e0e0;stroke-width:3.9988;stroke-linecap:round;stroke-linejoin:round"
       d="m 31.735627,42.868404 a 0.52873756,0.52927408 0 0 0 -0.530818,0.53134 0.52873756,0.52927408 0 0 0 0.530818,0.53142 0.52873756,0.52927408 0 0 0 0.523015,-0.53142 0.52873756,0.52927408 0 0 0 -0.523015,-0.53134 z"
       id="path84" /><path
       style="fill:#e0e0e0;stroke-width:3.9988;stroke-linecap:round;stroke-linejoin:round"
       d="m 29.627943,42.868404 a 0.52873756,0.52927408 0 0 0 -0.530818,0.53134 0.52873756,0.52927408 0 0 0 0.530818,0.53142 0.52873756,0.52927408 0 0 0 0.523015,-0.53142 0.52873756,0.52927408 0 0 0 -0.523015,-0.53134 z"
       id="path85" /><path
       style="fill:#e0e0e0;stroke-width:3.9988;stroke-linecap:round;stroke-linejoin:round"
       d="m 23.26491,49.211284 a 0.52873756,0.52927408 0 0 0 -0.530817,0.53138 0.52873756,0.52927408 0 0 0 0.530817,0.53139 0.52873756,0.52927408 0 0 0 0.523016,-0.53139 0.52873756,0.52927408 0 0 0 -0.523016,-0.53138 z"
       id="path88" /><path
       style="fill:#e0e0e0;stroke-width:3.9988;stroke-linecap:round;stroke-linejoin:round"
       d="m 23.268544,51.332614 a 0.52873756,0.52927408 0 0 0 -0.530819,0.53134 0.52873756,0.52927408 0 0 0 0.530819,0.53138 0.52873756,0.52927408 0 0 0 0.523016,-0.53138 0.52873756,0.52927408 0 0 0 -0.523016,-0.53134 z"
       id="path89" /><path
       style="fill:#e0e0e0;stroke-width:3.9988;stroke-linecap:round;stroke-linejoin:round"
       d="m 23.268544,47.085884 a 0.52873756,0.52927408 0 0 0 -0.530819,0.53134 0.52873756,0.52927408 0 0 0 0.530819,0.53138 0.52873756,0.52927408 0 0 0 0.523016,-0.53138 0.52873756,0.52927408 0 0 0 -0.523016,-0.53134 z"
       id="path90" /><ellipse
       style="opacity:1;fill:none;fill-opacity:1;stroke:#000000;stroke-width:1.05801;stroke-linecap:round;stroke-linejoin:round;stroke-opacity:1;paint-order:markers stroke fill"
       id="path18"
       cx="29.607685"
       cy="49.744781"
       rx="7.4023347"
       ry="7.4098463" /><ellipse
       style="opacity:1;fill:#e0e0e0;fill-opacity:1;stroke:#000000;stroke-width:1.06013;stroke-linecap:round;stroke-linejoin:round;stroke-dasharray:none;stroke-opacity:1;paint-order:fill markers stroke"
       id="path91"
       cx="29.607685"
       cy="21.163898"
       rx="2.1149528"
       ry="2.117099" /><ellipse
       style="opacity:1;fill:#870e2e;fill-opacity:1;stroke:none;stroke-width:1.41351;stroke-linecap:round;stroke-linejoin:round;stroke-dasharray:none;stroke-opacity:1;paint-order:fill markers stroke"
       id="path21"
       cx="29.60767"
       cy="49.744781"
       rx="4.2299061"
       ry="4.2342052" /><g
       id="g94"
       clip-path="url(#clipPath95)"
       transform="matrix(3.9967614,0,0,4.000817,-132.18621,-381.08485)"><path
         style="fill:none;stroke:#bf6980;stroke-width:0.264583px;stroke-linecap:round;stroke-linejoin:miter;stroke-opacity:1"
         d="m 39.422916,107.95 2.116666,0.52917"
         id="path92"
         sodipodi:nodetypes="cc" /><path
         style="fill:none;stroke:#bf6980;stroke-width:0.264583px;stroke-linecap:round;stroke-linejoin:miter;stroke-opacity:1"
         d="M 39.422916,107.42084 41.539582,107.95"
         id="path93"
         sodipodi:nodetypes="cc" /><path
         style="fill:none;stroke:#bf6980;stroke-width:0.264583px;stroke-linecap:round;stroke-linejoin:miter;stroke-opacity:1"
         d="m 39.422916,106.89167 2.116666,0.52917"
         id="path94"
         sodipodi:nodetypes="cc" /></g><path
       style="fill:#e0e0e0;fill-opacity:1;stroke:#000000;stroke-width:1.05801px;stroke-linecap:round;stroke-linejoin:miter;stroke-opacity:1;paint-order:stroke fill markers"
       d="m 31.72263,23.281074 1.057483,-4e-5"
       id="path96" /></g></svg>
